<?xml version="1.0" encoding="UTF-8"?><svg viewBox="0 0 1250 1000" xmlns="http://www.w3.org/2000/svg" version="1.1"><line x1="170" y1="75" x2="320" y2="75" stroke="black" stroke-width="1"></line><line x1="170" y1="185" x2="320" y2="185" stroke="black" stroke-width="1"></line><line x1="170" y1="295" x2="320" y2="295" stroke="black" stroke-width="1"></line><line x1="170" y1="405" x2="320" y2="405" stroke="black" stroke-width="1"></line><text x="180" y="65" fill="black" id="9W"></text><text x="180" y="175" fill="black" id="9B"></text><text x="180" y="285" fill="black" id="10W"></text><text x="180" y="395" fill="black" id="10B"></text><line x1="320" y1="75" x2="320" y2="185" stroke="black" stroke-width="1"></line><line x1="320" y1="295" x2="320" y2="405" stroke="black" stroke-width="1"></line><line x1="320" y1="130" x2="470" y2="130" stroke="black" stroke-width="1"></line><line x1="320" y1="350" x2="470" y2="350" stroke="black" stroke-width="1"></line><text x="330" y="120" fill="black" id="21W"></text><text x="330" y="340" fill="black" id="21B"></text><line x1="470" y1="130" x2="470" y2="350" stroke="black" stroke-width="1"></line><line x1="470" y1="240" x2="620" y2="240" stroke="black" stroke-width="1"></line><text x="480" y="230" fill="black" id="31W"></text><line x1="1090" y1="75" x2="940" y2="75" stroke="black" stroke-width="1"></line><line x1="1090" y1="185" x2="940" y2="185" stroke="black" stroke-width="1"></line><line x1="1090" y1="295" x2="940" y2="295" stroke="black" stroke-width="1"></line><line x1="1090" y1="405" x2="940" y2="405" stroke="black" stroke-width="1"></line><text x="950" y="65" fill="black" id="11W"></text><text x="950" y="175" fill="black" id="11B"></text><text x="950" y="285" fill="black" id="12W"></text><text x="950" y="395" fill="black" id="12B"></text><line x1="940" y1="75" x2="940" y2="185" stroke="black" stroke-width="1"></line><line x1="940" y1="295" x2="940" y2="405" stroke="black" stroke-width="1"></line><line x1="940" y1="130" x2="790" y2="130" stroke="black" stroke-width="1"></line><line x1="940" y1="350" x2="790" y2="350" stroke="black" stroke-width="1"></line><text x="800" y="120" fill="black" id="22W"></text><text x="800" y="340" fill="black" id="22B"></text><line x1="790" y1="130" x2="790" y2="350" stroke="black" stroke-width="1"></line><line x1="640" y1="240" x2="790" y2="240" stroke="black" stroke-width="1"></line><text x="650" y="230" fill="black" id="31B"></text><line x1="20" y1="40" x2="170" y2="40" stroke="black" stroke-width="1"></line><line x1="20" y1="110" x2="170" y2="110" stroke="black" stroke-width="1"></line><line x1="20" y1="150" x2="170" y2="150" stroke="black" stroke-width="1"></line><line x1="20" y1="220" x2="170" y2="220" stroke="black" stroke-width="1"></line><line x1="20" y1="260" x2="170" y2="260" stroke="black" stroke-width="1"></line><line x1="20" y1="330" x2="170" y2="330" stroke="black" stroke-width="1"></line><line x1="20" y1="370" x2="170" y2="370" stroke="black" stroke-width="1"></line><line x1="20" y1="440" x2="170" y2="440" stroke="black" stroke-width="1"></line><text x="30" y="30" fill="black" id="1W"></text><text x="30" y="100" fill="black" id="1B"></text><text x="30" y="140" fill="black" id="2W"></text><text x="30" y="210" fill="black" id="2B"></text><text x="30" y="250" fill="black" id="3W"></text><text x="30" y="320" fill="black" id="3B"></text><text x="30" y="360" fill="black" id="4W"></text><text x="30" y="430" fill="black" id="4B"></text><line x1="170" y1="40" x2="170" y2="110" stroke="black" stroke-width="1"></line><line x1="170" y1="150" x2="170" y2="220" stroke="black" stroke-width="1"></line><line x1="170" y1="260" x2="170" y2="330" stroke="black" stroke-width="1"></line><line x1="170" y1="370" x2="170" y2="440" stroke="black" stroke-width="1"></line><line x1="1230" y1="40" x2="1090" y2="40" stroke="black" stroke-width="1"></line><line x1="1230" y1="110" x2="1090" y2="110" stroke="black" stroke-width="1"></line><line x1="1230" y1="150" x2="1090" y2="150" stroke="black" stroke-width="1"></line><line x1="1230" y1="220" x2="1090" y2="220" stroke="black" stroke-width="1"></line><line x1="1230" y1="260" x2="1090" y2="260" stroke="black" stroke-width="1"></line><line x1="1230" y1="330" x2="1090" y2="330" stroke="black" stroke-width="1"></line><line x1="1230" y1="370" x2="1090" y2="370" stroke="black" stroke-width="1"></line><line x1="1230" y1="440" x2="1090" y2="440" stroke="black" stroke-width="1"></line><text x="1100" y="30" fill="black" id="5W"></text><text x="1100" y="100" fill="black" id="5B"></text><text x="1100" y="140" fill="black" id="5W"></text><text x="1100" y="210" fill="black" id="5B"></text><text x="1100" y="250" fill="black" id="7W"></text><text x="1100" y="320" fill="black" id="7B"></text><text x="1100" y="360" fill="black" id="8W"></text><text x="1100" y="430" fill="black" id="8B"></text><line x1="1090" y1="40" x2="1090" y2="110" stroke="black" stroke-width="1"></line><line x1="1090" y1="150" x2="1090" y2="220" stroke="black" stroke-width="1"></line><line x1="1090" y1="260" x2="1090" y2="330" stroke="black" stroke-width="1"></line><line x1="1090" y1="370" x2="1090" y2="440" stroke="black" stroke-width="1"></line><text x="5" y="45" fill="black">1</text><text x="5" y="115" fill="black">2</text><text x="5" y="155" fill="black">3</text><text x="5" y="225" fill="black">4</text><text x="5" y="265" fill="black">5</text><text x="5" y="335" fill="black">6</text><text x="5" y="375" fill="black">7</text><text x="5" y="445" fill="black">8</text><text x="1235" y="45" fill="black">9</text><text x="1232" y="115" fill="black">10</text><text x="1232" y="155" fill="black">11</text><text x="1232" y="225" fill="black">12</text><text x="1232" y="265" fill="black">13</text><text x="1232" y="335" fill="black">14</text><text x="1232" y="375" fill="black">15</text><text x="1232" y="445" fill="black">16</text><line x1="20" y1="480" x2="170" y2="480" stroke="black" stroke-width="1"></line><line x1="20" y1="550" x2="170" y2="550" stroke="black" stroke-width="1"></line><line x1="20" y1="590" x2="170" y2="590" stroke="black" stroke-width="1"></line><line x1="20" y1="660" x2="170" y2="660" stroke="black" stroke-width="1"></line><text x="30" y="470" fill="black" id="13W"></text><text x="30" y="540" fill="black" id="13B"></text><text x="30" y="580" fill="black" id="14W"></text><text x="30" y="650" fill="black" id="14B"></text><line x1="170" y1="480" x2="170" y2="550" stroke="black" stroke-width="1"></line><line x1="170" y1="590" x2="170" y2="660" stroke="black" stroke-width="1"></line><line x1="170" y1="515" x2="320" y2="515" stroke="black" stroke-width="1"></line><line x1="170" y1="625" x2="320" y2="625" stroke="black" stroke-width="1"></line><line x1="170" y1="575" x2="320" y2="575" stroke="black" stroke-width="1"></line><line x1="170" y1="685" x2="320" y2="685" stroke="black" stroke-width="1"></line><text x="180" y="505" fill="black" id="17W"></text><text x="180" y="565" fill="black" id="17B"></text><text x="180" y="615" fill="black" id="18W"></text><text x="180" y="675" fill="black" id="18B"></text><line x1="320" y1="515" x2="320" y2="575" stroke="black" stroke-width="1"></line><line x1="320" y1="625" x2="320" y2="685" stroke="black" stroke-width="1"></line><line x1="320" y1="545" x2="470" y2="545" stroke="black" stroke-width="1"></line><line x1="320" y1="655" x2="470" y2="655" stroke="black" stroke-width="1"></line><text x="330" y="535" fill="black" id="21W"></text><text x="330" y="645" fill="black" id="21B"></text><line x1="470" y1="545" x2="470" y2="655" stroke="black" stroke-width="1"></line><line x1="470" y1="600" x2="620" y2="600" stroke="black" stroke-width="1"></line><line x1="470" y1="670" x2="620" y2="670" stroke="black" stroke-width="1"></line><line x1="620" y1="600" x2="620" y2="670" stroke="black" stroke-width="1"></line><line x1="620" y1="635" x2="770" y2="635" stroke="black" stroke-width="1"></line><text x="480" y="590" fill="black" id="27W"></text><text x="480" y="660" fill="black" id="27B"></text><line x1="20" y1="700" x2="170" y2="700" stroke="black" stroke-width="1"></line><line x1="20" y1="770" x2="170" y2="770" stroke="black" stroke-width="1"></line><line x1="20" y1="810" x2="170" y2="810" stroke="black" stroke-width="1"></line><line x1="20" y1="880" x2="170" y2="880" stroke="black" stroke-width="1"></line><text x="30" y="690" fill="black" id="15W"></text><text x="30" y="760" fill="black" id="15B"></text><text x="30" y="800" fill="black" id="16W"></text><text x="30" y="870" fill="black" id="16B"></text><line x1="170" y1="700" x2="170" y2="770" stroke="black" stroke-width="1"></line><line x1="170" y1="810" x2="170" y2="880" stroke="black" stroke-width="1"></line><line x1="170" y1="735" x2="320" y2="735" stroke="black" stroke-width="1"></line><line x1="170" y1="845" x2="320" y2="845" stroke="black" stroke-width="1"></line><line x1="170" y1="795" x2="320" y2="795" stroke="black" stroke-width="1"></line><line x1="170" y1="905" x2="320" y2="905" stroke="black" stroke-width="1"></line><text x="180" y="725" fill="black" id="19W"></text><text x="180" y="785" fill="black" id="19B"></text><text x="180" y="835" fill="black" id="20W"></text><text x="180" y="895" fill="black" id="20B"></text><line x1="320" y1="735" x2="320" y2="795" stroke="black" stroke-width="1"></line><line x1="320" y1="845" x2="320" y2="905" stroke="black" stroke-width="1"></line><line x1="320" y1="765" x2="470" y2="765" stroke="black" stroke-width="1"></line><line x1="320" y1="875" x2="470" y2="875" stroke="black" stroke-width="1"></line><text x="330" y="755" fill="black" id="24W"></text><text x="330" y="865" fill="black" id="24B"></text><line x1="470" y1="765" x2="470" y2="875" stroke="black" stroke-width="1"></line><line x1="470" y1="820" x2="620" y2="820" stroke="black" stroke-width="1"></line><line x1="470" y1="890" x2="620" y2="890" stroke="black" stroke-width="1"></line><line x1="620" y1="820" x2="620" y2="890" stroke="black" stroke-width="1"></line><line x1="620" y1="855" x2="770" y2="855" stroke="black" stroke-width="1"></line><text x="480" y="810" fill="black" id="28W"></text><text x="480" y="880" fill="black" id="28B"></text></svg>