<?xml version="1.0" encoding="UTF-8" standalone="no"?>
<svg
   viewBox="0 0 1565 620"
   version="1.1"
   xmlns="http://www.w3.org/2000/svg">
  <line
     x1="20"
     y1="40.564129"
     x2="1545"
     y2="40.564129"
     stroke="#000000"
     stroke-width="1.1367"
     id="hline1" />
  <line
     x1="20"
     y1="120.55003"
     x2="1545"
     y2="120.55003"
     stroke="#000000"
     stroke-width="1.1367"
     id="hline2" />
  <line
     x1="20"
     y1="200.52748"
     x2="1545"
     y2="200.52748"
     stroke="#000000"
     stroke-width="1.1367"
     id="hline3" />
  <line
     x1="20"
     y1="280.50916"
     x2="1545"
     y2="280.50916"
     stroke="#000000"
     stroke-width="1.1367"
     id="hline4" />
  <line
     x1="20"
     y1="360.49084"
     x2="1545"
     y2="360.49084"
     stroke="#000000"
     stroke-width="1.1367"
     id="hline5" />
  <line
     x1="20"
     y1="440.4725"
     x2="1545"
     y2="440.4725"
     stroke="#000000"
     stroke-width="1.1367"
     id="hline6" />
  <line
     x1="20"
     y1="520.45844"
     x2="1545"
     y2="520.45844"
     stroke="#000000"
     stroke-width="1.1367"
     id="hline7" />
  <line
     x1="20"
     y1="600.44006"
     x2="1545"
     y2="600.44006"
     stroke="#000000"
     stroke-width="1.1367"
     id="hline8" />
  <line
     x1="1395"
     y1="80.117348"
     x2="1470"
     y2="80.117348"
     stroke="#000000"
     stroke-width="0.25211"
     id="hline1.5" />
  <line
     x1="1395"
     y1="160.12605"
     x2="1470"
     y2="160.12605"
     stroke="#000000"
     stroke-width="0.25211"
     id="hline2.5" />
  <line
     x1="1395"
     y1="240.12605"
     x2="1470"
     y2="240.12605"
     stroke="#000000"
     stroke-width="0.25211"
     id="hline3.5" />
  <line
     x1="1395"
     y1="320.12607"
     x2="1470"
     y2="320.12607"
     stroke="#000000"
     stroke-width="0.25211"
     id="hline4.5" />
  <line
     x1="1395"
     y1="400.12607"
     x2="1470"
     y2="400.12607"
     stroke="#000000"
     stroke-width="0.25211"
     id="hline5.5" />
  <line
     x1="1395"
     y1="480.12607"
     x2="1470"
     y2="480.12607"
     stroke="#000000"
     stroke-width="0.25211"
     id="hline6.5" />
  <line
     x1="1395"
     y1="560.12604"
     x2="1470"
     y2="560.12604"
     stroke="#000000"
     stroke-width="0.25211"
     id="hline7.5" />
  <text
     x="30"
     y="160"
     fill="black"
     id="Competitor1" />
  <text
     x="449"
     y="160"
     fill="black"
     id="1W" />
  <text
     x="644"
     y="160"
     fill="#000000"
     id="4W" />
  <text
     x="839"
     y="160"
     fill="#000000"
     id="7W" />
  <text
     x="1034"
     y="160"
     fill="#000000"
     id="10W" />
  <text
     x="1229"
     y="160"
     fill="#000000"
     id="13W" />
  <text
     x="1429"
     y="135"
     fill="#000000"
     id="WinComp1" />
  <text
     x="1429"
     y="175"
     fill="#000000"
     id="PuntComp1" />
  <text
     x="1180"
     y="160"
     fill="#000000"
     id="ResComp1" />
  <text
     x="30"
     y="240"
     fill="black"
     id="Competitor2" />
  <text
     x="449"
     y="240"
     fill="black"
     id="1B" />
  <text
     x="774"
     y="240"
     fill="black"
     id="6W" />
  <text
     x="904"
     y="240"
     fill="#000000"
     id="8W" />
  <text
     x="1164"
     y="240"
     fill="#000000"
     id="12W" />
  <text
     x="1294"
     y="240"
     fill="#000000"
     id="14W" />
  <text
     x="1429"
     y="215"
     fill="#000000"
     id="WinComp2" />
  <text
     x="1429"
     y="255"
     fill="#000000"
     id="PuntComp2" />
  <text
     x="1180"
     y="240"
     fill="#000000"
     id="ResComp2" />
  <text
     x="30"
     y="320"
     fill="black"
     id="Competitor3" />
  <text
     x="514"
     y="320"
     fill="#000000"
     id="2W" />
  <text
     x="644"
     y="320"
     fill="#000000"
     id="4B" />
  <text
     x="969"
     y="320"
     fill="black"
     id="9W" />
  <text
     x="1164"
     y="320"
     fill="#000000"
     id="12B" />
  <text
     x="1359"
     y="320"
     fill="#000000"
     id="15W" />
  <text
     x="1429"
     y="295"
     fill="#000000"
     id="WinComp3" />
  <text
     x="1429"
     y="335"
     fill="#000000"
     id="PuntComp3" />
  <text
     x="1180"
     y="320"
     fill="#000000"
     id="ResComp3" />
  <text
     x="30"
     y="400"
     fill="black"
     id="Competitor4" />
  <text
     x="514"
     y="400"
     fill="#000000"
     id="2B" />
  <text
     x="709"
     y="400"
     fill="#000000"
     id="5W" />
  <text
     x="839"
     y="400"
     fill="#000000"
     id="7B" />
  <text
     x="1099"
     y="400"
     fill="#000000"
     id="11W" />
  <text
     x="1294"
     y="400"
     fill="#000000"
     id="14B" />
  <text
     x="1429"
     y="375"
     fill="#000000"
     id="WinComp4" />
  <text
     x="1429"
     y="415"
     fill="#000000"
     id="PuntComp4" />
  <text
     x="1180"
     y="400"
     fill="#000000"
     id="ResComp4" />
  <text
     x="30"
     y="480"
     fill="black"
     id="Competitor5" />
  <text
     x="579"
     y="480"
     fill="#000000"
     id="3W" />
  <text
     x="709"
     y="480"
     fill="#000000"
     id="5B" />
  <text
     x="904"
     y="480"
     fill="#000000"
     id="8B" />
  <text
     x="1034"
     y="480"
     fill="#000000"
     id="10B" />
  <text
     x="1359"
     y="480"
     fill="#000000"
     id="15B" />
  <text
     x="1429"
     y="455"
     fill="#000000"
     id="WinComp5" />
  <text
     x="1429"
     y="495"
     fill="#000000"
     id="PuntComp5" />
  <text
     x="1180"
     y="480"
     fill="#000000"
     id="ResComp5" />
  <text
     x="30"
     y="560"
     fill="black"
     id="Competitor6" />
  <text
     x="579"
     y="560"
     fill="black"
     id="3B" />
  <text
     x="774"
     y="560"
     fill="#000000"
     id="6B" />
  <text
     x="969"
     y="560"
     fill="#000000"
     id="9B" />
  <text
     x="1099"
     y="560"
     fill="#000000"
     id="11B" />
  <text
     x="1229"
     y="560"
     fill="#000000"
     id="13B" />
  <text
     x="1429"
     y="535"
     fill="#000000"
     id="WinComp6" />
  <text
     x="1429"
     y="575"
     fill="#000000"
     id="PuntComp6" />
  <text
     x="1180"
     y="560"
     fill="#000000"
     id="ResComp6" />
  <line
     x1="19.848402"
     y1="40"
     x2="19.848402"
     y2="600"
     stroke="#000000"
     stroke-width="1.18318"
     id="vline1" />
  <line
     x1="420.51459"
     y1="40"
     x2="420.51459"
     y2="600"
     stroke="#000000"
     stroke-width="1.18317"
     id="vline2" />
  <line
     x1="485.55756"
     y1="40"
     x2="485.55756"
     y2="600"
     stroke="#000000"
     stroke-width="1.18318"
     id="vline3" />
  <line
     x1="550.5528"
     y1="40"
     x2="550.5528"
     y2="600"
     stroke="#000000"
     stroke-width="1.18318"
     id="vline4" />
  <line
     x1="615.5481"
     y1="40"
     x2="615.5481"
     y2="600"
     stroke="#000000"
     stroke-width="1.18318"
     id="vline5" />
  <line
     x1="680.54333"
     y1="40"
     x2="680.54333"
     y2="600"
     stroke="#000000"
     stroke-width="1.18318"
     id="vline6" />
  <line
     x1="745.53857"
     y1="40"
     x2="745.53857"
     y2="600"
     stroke="#000000"
     stroke-width="1.18318"
     id="vline7" />
  <line
     x1="810.53381"
     y1="40"
     x2="810.53381"
     y2="600"
     stroke="#000000"
     stroke-width="1.18318"
     id="vline8" />
  <line
     x1="875.52905"
     y1="40"
     x2="875.52905"
     y2="600"
     stroke="#000000"
     stroke-width="1.18318"
     id="vline9" />
  <line
     x1="940.52429"
     y1="40"
     x2="940.52429"
     y2="600"
     stroke="#000000"
     stroke-width="1.18318"
     id="vline10" />
  <line
     x1="1005.5196"
     y1="40"
     x2="1005.5196"
     y2="600"
     stroke="#000000"
     stroke-width="1.18318"
     id="line9571" />
  <line
     x1="1070.5148"
     y1="40"
     x2="1070.5148"
     y2="600"
     stroke="#000000"
     stroke-width="1.18318"
     id="vline11" />
  <line
     x1="1135"
     y1="40"
     x2="1135"
     y2="600"
     stroke="#000000"
     stroke-width="1.18318"
     id="vline12" />
  <line
     x1="1200"
     y1="40"
     x2="1200"
     y2="600"
     stroke="#000000"
     stroke-width="1.18318"
     id="vline13" />
  <line
     x1="1265"
     y1="40"
     x2="1265"
     y2="600"
     stroke="#000000"
     stroke-width="1.18318"
     id="vline14" />
  <line
     x1="1330"
     y1="40"
     x2="1330"
     y2="600"
     stroke="#000000"
     stroke-width="1.18318"
     id="vline15" />
  <line
     x1="1395"
     y1="40"
     x2="1395"
     y2="600"
     stroke="#000000"
     stroke-width="1.18318"
     id="vline16" />
  <line
     x1="1470.5916"
     y1="40"
     x2="1470.5916"
     y2="600"
     stroke="#000000"
     stroke-width="1.18318"
     id="vline17" />
  <line
     x1="1545.5916"
     y1="40"
     x2="1545.5916"
     y2="600"
     stroke="#000000"
     stroke-width="1.18318"
     id="vline18" />
  <text
     x="447.58496"
     y="88.359375"
     fill="#000000"
     id="match1"
     style="font-size:18px;stroke-width:0.999997">1</text>
  <text
     x="512.58496"
     y="88.906166"
     fill="#000000"
     id="match2"
     style="font-size:18px;stroke-width:0.999997">2</text>
  <text
     x="577.58496"
     y="88.359375"
     fill="#000000"
     id="match3"
     style="font-size:18px;stroke-width:0.999997">3</text>
  <text
     x="642.53223"
     y="88.359375"
     fill="#000000"
     id="match4"
     style="font-size:18px;stroke-width:0.999997">4</text>
  <text
     x="708.32324"
     y="88.086914"
     fill="#000000"
     id="match5"
     style="font-size:18px;stroke-width:0.999997">5</text>
  <text
     x="772.35645"
     y="88.086914"
     fill="#000000"
     id="match6"
     style="font-size:18px;stroke-width:0.999997">6</text>
  <text
     x="836.7959"
     y="88.333008"
     fill="#000000"
     id="match7"
     style="font-size:18px;stroke-width:0.999997">7</text>
  <text
     x="902.64648"
     y="88.086914"
     fill="#000000"
     id="match8"
     style="font-size:18px;stroke-width:0.999997">8</text>
  <text
     x="966.92773"
     y="88.385742"
     fill="#000000"
     id="match9"
     style="font-size:18px;stroke-width:0.999997">9</text>
  <text
     x="1026.5566"
     y="88.350586"
     fill="#000000"
     id="match10"
     style="font-size:18px;stroke-width:0.999997">10</text>
  <text
     x="1091.5566"
     y="88.350586"
     fill="#000000"
     id="match11"
     style="font-size:18px;stroke-width:0.999997">11</text>
  <text
     x="1156.5566"
     y="88.350586"
     fill="#000000"
     id="match12"
     style="font-size:18px;stroke-width:0.999997">12</text>
  <text
     x="1221.5566"
     y="88.350586"
     fill="#000000"
     id="match13"
     style="font-size:18px;stroke-width:0.999997">13</text>
  <text
     x="1286.5566"
     y="88.350586"
     fill="#000000"
     id="match14"
     style="font-size:18px;stroke-width:0.999997">14</text>
  <text
     x="1351.5566"
     y="88.350586"
     fill="#000000"
     id="match15"
     style="font-size:18px;stroke-width:0.999997">15</text>
  <text
     x="1407.1914"
     y="68.086914"
     fill="#000000"
     id="gewonnenpartijen"
     style="font-size:18px;stroke-width:0.999997">Winst</text>
  <text
     x="1403.2422"
     y="108.67578"
     fill="#000000"
     id="totaalpunten"
     style="font-size:18px;stroke-width:0.999997">Punten</text>
  <text
     x="1488.2422"
     y="88.086914"
     fill="#000000"
     id="resultaat"
     style="font-size:18px;stroke-width:0.999997">Res.</text>
  <path
     style="fill:#a0a0a0;stroke:none"
     d="m 421.5,480.5 v -39 h 31.5 31.5 v 39 39 H 453 421.5 Z"
     id="path1679" />
  <path
     style="fill:#a0a0a0;stroke:none"
     d="m 421.5,400.5 v -39 h 31.5 31.5 v 39 39 H 453 421.5 Z"
     id="path1718" />
  <path
     style="fill:#a0a0a0;stroke:none"
     d="m 421.5,320.5 v -39 h 31.5 31.5 v 39 39 H 453 421.5 Z"
     id="path1757" />
  <path
     style="fill:#a0a0a0;stroke:none"
     d="m 486.5,160.5 v -39 h 31.5 31.5 v 39 39 H 518 486.5 Z"
     id="path2073" />
  <path
     style="fill:#a0a0a0;stroke:none"
     d="m 486.5,240.5 v -39 h 31.5 31.5 v 39 39 H 518 486.5 Z"
     id="path2112" />
  <path
     style="fill:#a0a0a0;stroke:none"
     d="m 486.5,480.5 v -39 h 31.5 31.5 v 39 39 H 518 486.5 Z"
     id="path2588" />
  <path
     style="fill:#a0a0a0;stroke:none"
     d="m 551.5,400.5 v -39 h 31.5 31.5 v 39 39 H 583 551.5 Z"
     id="path2627" />
  <path
     style="fill:#a0a0a0;stroke:none"
     d="m 551.5,320.5 v -39 h 31.5 31.5 v 39 39 H 583 551.5 Z"
     id="path2666" />
  <path
     style="fill:#a0a0a0;stroke:none"
     d="m 551.5,240.5 v -39 h 31.5 31.5 v 39 39 H 583 551.5 Z"
     id="path2705" />
  <path
     style="fill:#a0a0a0;stroke:none"
     d="m 681.5,160.5 v -39 h 31.5 31.5 v 39 39 H 713 681.5 Z"
     id="path3380" />
  <path
     style="fill:#a0a0a0;stroke:none"
     d="m 616.5,400.5 v -39 h 31.5 31.5 v 39 39 H 648 616.5 Z"
     id="path3856" />
  <path
     style="fill:#a0a0a0;stroke:none"
     d="m 616.5,480.5 v -39 h 31.5 31.5 v 39 39 H 648 616.5 Z"
     id="path3895" />
  <path
     style="fill:#a0a0a0;stroke:none"
     d="m 681.5,240.5 v -39 h 31.5 31.5 v 39 39 H 713 681.5 Z"
     id="path3934" />
  <path
     style="fill:#a0a0a0;stroke:none"
     d="m 681.5,320.5 v -39 h 31.5 31.5 v 39 39 H 713 681.5 Z"
     id="path3973" />
  <path
     style="fill:#a0a0a0;stroke:none"
     d="m 746.5,400.5 v -39 h 31.5 31.5 v 39 39 H 778 746.5 Z"
     id="path4408" />
  <path
     style="fill:#a0a0a0;stroke:none"
     d="m 746.5,480.5 v -39 h 31.5 31.5 v 39 39 H 778 746.5 Z"
     id="path4447" />
  <path
     style="fill:#a0a0a0;stroke:none"
     d="m 811.5,320.5 v -39 h 31.5 31.5 v 39 39 H 843 811.5 Z"
     id="path4882" />
  <path
     style="fill:#a0a0a0;stroke:none"
     d="m 811.5,480.5 v -39 h 31.5 31.5 v 39 39 H 843 811.5 Z"
     id="path4921" />
  <path
     style="fill:#a0a0a0;stroke:none"
     d="m 876.5,160.5 v -39 h 31.5 31.5 v 39 39 H 908 876.5 Z"
     id="path5557" />
  <path
     style="fill:#a0a0a0;stroke:none"
     d="m 941.5,240.5 v -39 h 31.5 31.5 v 39 39 H 973 941.5 Z"
     id="path5635" />
  <path
     style="fill:#a0a0a0;stroke:none"
     d="m 1006.5,320.5 v -39 h 31.5 31.5 v 39 39 h -31.5 -31.5 z"
     id="path5713" />
  <path
     style="fill:#a0a0a0;stroke:none"
     d="m 1006.5,400.5 v -39 h 31.5 31.5 v 39 39 h -31.5 -31.5 z"
     id="path5752" />
  <path
     style="fill:#a0a0a0;stroke:none"
     d="m 876.5,400.5 v -39 h 31.5 31.5 v 39 39 H 908 876.5 Z"
     id="path6148" />
  <path
     style="fill:#a0a0a0;stroke:none"
     d="m 941.5,480.5 v -39 h 31.5 31.5 v 39 39 H 973 941.5 Z"
     id="path6187" />
  <path
     style="fill:#a0a0a0;stroke:none"
     d="m 421.5,560.5 v -39 h 31.5 31.5 v 39 39 H 453 421.5 Z"
     id="path7398" />
  <path
     style="fill:#a0a0a0;stroke:none"
     d="m 551.5,160.5 v -39 h 31.5 31.5 v 39 39 H 583 551.5 Z"
     id="path7437" />
  <path
     style="fill:#a0a0a0;stroke:none"
     d="m 486.5,560.5 v -39 h 31.5 31.5 v 39 39 H 518 486.5 Z"
     id="path7515" />
  <path
     style="fill:#a0a0a0;stroke:none"
     d="m 616.5,240.5 v -39 h 31.5 31.5 v 39 39 H 648 616.5 Z"
     id="path7554" />
  <path
     style="fill:#a0a0a0;stroke:none"
     d="m 616.5,560.5 v -39 h 31.5 31.5 v 39 39 H 648 616.5 Z"
     id="path7593" />
  <path
     style="fill:#a0a0a0;stroke:none"
     d="m 681.5,560.5 v -39 h 31.5 31.5 v 39 39 H 713 681.5 Z"
     id="path7632" />
  <path
     style="fill:#a0a0a0;stroke:none"
     d="m 746.5,320.5 v -39 h 31.5 31.5 v 39 39 H 778 746.5 Z"
     id="path7671" />
  <path
     style="fill:#a0a0a0;stroke:none"
     d="m 746.5,160.5 v -39 h 31.5 31.5 v 39 39 H 778 746.5 Z"
     id="path7710" />
  <path
     style="fill:#a0a0a0;stroke:none"
     d="m 811.5,240.5 v -39 h 31.5 31.5 v 39 39 H 843 811.5 Z"
     id="path7749" />
  <path
     style="fill:#a0a0a0;stroke:none"
     d="m 811.5,560.5 v -39 h 31.5 31.5 v 39 39 H 843 811.5 Z"
     id="path7788" />
  <path
     style="fill:#a0a0a0;stroke:none"
     d="m 876.5,560.5 v -39 h 31.5 31.5 v 39 39 H 908 876.5 Z"
     id="path7827" />
  <path
     style="fill:#a0a0a0;stroke:none"
     d="m 876.5,320.5 v -39 h 31.5 31.5 v 39 39 H 908 876.5 Z"
     id="path7866" />
  <path
     style="fill:#a0a0a0;stroke:none"
     d="m 941.5,160.5 v -39 h 31.5 31.5 v 39 39 H 973 941.5 Z"
     id="path7905" />
  <path
     style="fill:#a0a0a0;stroke:none"
     d="m 941.5,400.5 v -39 h 31.5 31.5 v 39 39 H 973 941.5 Z"
     id="path7944" />
  <path
     style="fill:#a0a0a0;stroke:none"
     d="m 1006.5,240.5 v -39 h 31.5 31.5 v 39 39 h -31.5 -31.5 z"
     id="path7983" />
  <path
     style="fill:#a0a0a0;stroke:none"
     d="m 1006.5,560.5 v -39 h 31.5 31.5 v 39 39 h -31.5 -31.5 z"
     id="path8022" />
  <path
     style="fill:#a0a0a0;stroke:none"
     d="m 1071.5,480.5 v -39 h 31 31 v 39 39 h -31 -31 z"
     id="path8061" />
  <path
     style="fill:#a0a0a0;stroke:none"
     d="m 1071.5,320.5 v -39 h 31 31 v 39 39 h -31 -31 z"
     id="path8100" />
  <path
     style="fill:#a0a0a0;stroke:none"
     d="m 1071.5,240.5 v -39 h 31 31 v 39 39 h -31 -31 z"
     id="path8139" />
  <path
     style="fill:#a0a0a0;stroke:none"
     d="m 1071.5,160.5 v -39 h 31 31 v 39 39 h -31 -31 z"
     id="path8178" />
  <path
     style="fill:#a0a0a0;stroke:none"
     d="m 1136.5,160.5 v -39 h 31 31 v 39 39 h -31 -31 z"
     id="path8217" />
  <path
     style="fill:#a0a0a0;stroke:none"
     d="m 1136.5,400.5 v -39 h 31 31 v 39 39 h -31 -31 z"
     id="path8256" />
  <path
     style="fill:#a0a0a0;stroke:none"
     d="m 1136.5,480.5 v -39 h 31 31 v 39 39 h -31 -31 z"
     id="path8295" />
  <path
     style="fill:#a0a0a0;stroke:none"
     d="m 1136.5,560.5 v -39 h 31 31 v 39 39 h -31 -31 z"
     id="path8334" />
  <path
     style="fill:#a0a0a0;stroke:none"
     d="m 1201.5,240.5 v -39 h 31 31 v 39 39 h -31 -31 z"
     id="path8373" />
  <path
     style="fill:#a0a0a0;stroke:none"
     d="m 1201.5,320.5 v -39 h 31 31 v 39 39 h -31 -31 z"
     id="path8412" />
  <path
     style="fill:#a0a0a0;stroke:none"
     d="m 1201.5,400.5 v -39 h 31 31 v 39 39 h -31 -31 z"
     id="path8451" />
  <path
     style="fill:#a0a0a0;stroke:none"
     d="m 1201.5,480.5 v -39 h 31 31 v 39 39 h -31 -31 z"
     id="path8490" />
  <path
     style="fill:#a0a0a0;stroke:none"
     d="m 1266.5,160.5 v -39 h 31 31 v 39 39 h -31 -31 z"
     id="path8529" />
  <path
     style="fill:#a0a0a0;stroke:none"
     d="m 1266.5,320.5 v -39 h 31 31 v 39 39 h -31 -31 z"
     id="path8568" />
  <path
     style="fill:#a0a0a0;stroke:none"
     d="m 1266.5,560.5 v -39 h 31 31 v 39 39 h -31 -31 z"
     id="path8646" />
  <path
     style="fill:#a0a0a0;stroke:none"
     d="m 1266.5,480.5 v -39 h 31 31 v 39 39 h -31 -31 z"
     id="path8685" />
  <path
     style="fill:#a0a0a0;stroke:none"
     d="m 1331.5,160.5 v -39 h 31 31 v 39 39 h -31 -31 z"
     id="path8724" />
  <path
     style="fill:#a0a0a0;stroke:none"
     d="m 1331.5,240.5 v -39 h 31 31 v 39 39 h -31 -31 z"
     id="path8763" />
  <path
     style="fill:#a0a0a0;stroke:none"
     d="m 1331.5,400.5 v -39 h 31 31 v 39 39 h -31 -31 z"
     id="path8802" />
  <path
     style="fill:#a0a0a0;stroke:none"
     d="m 1331.5,560.5 v -39 h 31 31 v 39 39 h -31 -31 z"
     id="path8841" />
</svg>
