<?xml version="1.0" encoding="UTF-8" standalone="no"?>
<svg
   viewBox="0 0 1240 560"
   version="1.1"
   xmlns="http://www.w3.org/2000/svg">
  <line
     x1="20"
     y1="40.5"
     x2="1220"
     y2="40.5"
     stroke="#000000"
     stroke-width="1.00844"
     id="line323" />
  <line
     x1="20"
     y1="120.50422"
     x2="1220"
     y2="120.50422"
     stroke="#000000"
     stroke-width="1.00844"
     id="line323-6" />
  <line
     x1="1070"
     y1="80.117348"
     x2="1145"
     y2="80.117348"
     stroke="#000000"
     stroke-width="0.25211"
     id="line323-6-7" />
  <line
     x1="1070"
     y1="160.12605"
     x2="1145"
     y2="160.12605"
     stroke="#000000"
     stroke-width="0.25211"
     id="line323-6-7-6" />
  <line
     x1="1070"
     y1="240.12605"
     x2="1145"
     y2="240.12605"
     stroke="#000000"
     stroke-width="0.25211"
     id="line323-6-7-6-6" />
  <line
     x1="1070"
     y1="320.12607"
     x2="1145"
     y2="320.12607"
     stroke="#000000"
     stroke-width="0.25211"
     id="line323-6-7-6-6-6" />
  <line
     x1="1070"
     y1="400.12607"
     x2="1145"
     y2="400.12607"
     stroke="#000000"
     stroke-width="0.25211"
     id="line323-6-7-6-6-6-7" />
  <line
     x1="1070"
     y1="480.12607"
     x2="1145"
     y2="480.12607"
     stroke="#000000"
     stroke-width="0.25211"
     id="line323-6-7-6-6-6-7-5" />
  <line
     x1="20"
     y1="200.5"
     x2="1220"
     y2="200.5"
     stroke="#000000"
     stroke-width="1.00844"
     id="line323-6-8" />
  <line
     x1="20"
     y1="280.5"
     x2="1220"
     y2="280.5"
     stroke="#000000"
     stroke-width="1.00844"
     id="line323-6-8-0" />
  <line
     x1="20"
     y1="360.5"
     x2="1220"
     y2="360.5"
     stroke="#000000"
     stroke-width="1.00844"
     id="line323-6-8-0-4" />
  <line
     x1="20"
     y1="440.5"
     x2="1220"
     y2="440.5"
     stroke="#000000"
     stroke-width="1.00844"
     id="line323-6-8-0-4-5" />
  <line
     x1="20"
     y1="520.50421"
     x2="1220"
     y2="520.50421"
     stroke="#000000"
     stroke-width="1.00844"
     id="line323-6-8-0-4-5-7" /> <!---->
  <text
     x="30"
     y="160"
     fill="black"
     id="Competitor1" />
  <text
     x="449"
     y="160"
     fill="black"
     id="1W" />
  <text
     x="579"
     y="160"
     fill="black"
     id="3W" />
  <text
     x="774"
     y="160"
     fill="black"
     id="6W" />
  <text
     x="969"
     y="160"
     fill="black"
     id="9W" />
  <text
     x="1099"
     y="135"
     fill="#000000"
     id="WinComp1" />
  <text
     x="1099"
     y="175"
     fill="#000000"
     id="PuntComp1" />
  <text
     x="1180"
     y="160"
     fill="#000000"
     id="ResComp1" />
  <text
     x="30"
     y="240"
     fill="black"
     id="Competitor2" />
  <text
     x="449"
     y="240"
     fill="black"
     id="1B" />
  <text
     x="644"
     y="240"
     fill="#000000"
     id="4W" />
  <text
     x="839"
     y="240"
     fill="#000000"
     id="7W" />
  <text
     x="1034"
     y="240"
     fill="#000000"
     id="10W" />
  <text
     x="1099"
     y="215"
     fill="#000000"
     id="WinComp2" />
  <text
     x="1099"
     y="255"
     fill="#000000"
     id="PuntComp2" />
  <text
     x="1180"
     y="240"
     fill="#000000"
     id="ResComp2" />
  <text
     x="30"
     y="320"
     fill="black"
     id="Competitor3" />
  <text
     x="514"
     y="320"
     fill="#000000"
     id="2W" />
  <text
     x="644"
     y="320"
     fill="#000000"
     id="4B" />
  <text
     x="774"
     y="320"
     fill="#000000"
     id="6B" />
  <text
     x="904"
     y="320"
     fill="#000000"
     id="8W" />
  <text
     x="1099"
     y="295"
     fill="#000000"
     id="WinComp3" />
  <text
     x="1099"
     y="335"
     fill="#000000"
     id="PuntComp3" />
  <text
     x="1180"
     y="320"
     fill="#000000"
     id="ResComp3" />
  <text
     x="30"
     y="400"
     fill="black"
     id="Competitor4" />
  <text
     x="514"
     y="400"
     fill="#000000"
     id="2B" />
  <text
     x="709"
     y="400"
     fill="#000000"
     id="5W" />
  <text
     x="839"
     y="400"
     fill="#000000"
     id="7B" />
  <text
     x="969"
     y="400"
     fill="#000000"
     id="9B" />
  <text
     x="1099"
     y="375"
     fill="#000000"
     id="WinComp4" />
  <text
     x="1099"
     y="415"
     fill="#000000"
     id="PuntComp4" />
  <text
     x="1180"
     y="400"
     fill="#000000"
     id="ResComp4" />
  <text
     x="30"
     y="480"
     fill="black"
     id="Competitor5" />
  <text
     x="579"
     y="480"
     fill="#000000"
     id="3B" />
  <text
     x="709"
     y="480"
     fill="#000000"
     id="5B" />
  <text
     x="904"
     y="480"
     fill="#000000"
     id="8B" />
  <text
     x="1034"
     y="480"
     fill="#000000"
     id="10B" />
  <text
     x="1099"
     y="455"
     fill="#000000"
     id="WinComp5" />
  <text
     x="1099"
     y="495"
     fill="#000000"
     id="PuntComp5" />
  <text
     x="1180"
     y="480"
     fill="#000000"
     id="ResComp5" />
  <line
     x1="19.804539"
     y1="40"
     x2="19.804539"
     y2="520"
     stroke="#000000"
     stroke-width="1.09545"
     id="line347" />
  <line
     x1="1220.5"
     y1="40"
     x2="1220.5"
     y2="520"
     stroke="#000000"
     stroke-width="1.09545"
     id="line347-3" />
  <line
     x1="1145.5477"
     y1="40"
     x2="1145.5477"
     y2="520"
     stroke="#000000"
     stroke-width="1.09545"
     id="line347-3-1" />
  <line
     x1="420.5"
     y1="40"
     x2="420.5"
     y2="520"
     stroke="#000000"
     stroke-width="1.09544"
     id="line347-3-6" />
  <line
     x1="485.54773"
     y1="40"
     x2="485.54773"
     y2="520"
     stroke="#000000"
     stroke-width="1.09545"
     id="line347-3-6-5" />
  <line
     x1="550.54773"
     y1="40"
     x2="550.54773"
     y2="520"
     stroke="#000000"
     stroke-width="1.09545"
     id="line347-3-6-5-0" />
  <line
     x1="615.54773"
     y1="40"
     x2="615.54773"
     y2="520"
     stroke="#000000"
     stroke-width="1.09545"
     id="line347-3-6-5-0-9" />
  <line
     x1="680.54773"
     y1="40"
     x2="680.54773"
     y2="520"
     stroke="#000000"
     stroke-width="1.09545"
     id="line347-3-6-5-0-9-8" />
  <line
     x1="745.54773"
     y1="40"
     x2="745.54773"
     y2="520"
     stroke="#000000"
     stroke-width="1.09545"
     id="line347-3-6-5-0-9-8-9" />
  <line
     x1="810.54773"
     y1="40"
     x2="810.54773"
     y2="520"
     stroke="#000000"
     stroke-width="1.09545"
     id="line347-3-6-5-0-9-8-9-6" />
  <line
     x1="940.54773"
     y1="40"
     x2="940.54773"
     y2="520"
     stroke="#000000"
     stroke-width="1.09545"
     id="line347-3-6-5-0-9-8-9-6-1" />
  <line
     x1="1070.5477"
     y1="40"
     x2="1070.5477"
     y2="520"
     stroke="#000000"
     stroke-width="1.09545"
     id="line347-3-6-5-0-9-8-9-6-1-7" />
  <line
     x1="1005.5477"
     y1="40"
     x2="1005.5477"
     y2="520"
     stroke="#000000"
     stroke-width="1.09545"
     id="line347-3-6-5-0-9-8-9-6-1-7-2" />
  <line
     x1="875.54773"
     y1="40"
     x2="875.54773"
     y2="520"
     stroke="#000000"
     stroke-width="1.09545"
     id="line347-3-6-5-0-9-8-9-6-8" />
  <text
     x="447.58496"
     y="88.359375"
     fill="#000000"
     id="text391-1"
     style="font-size:18px;stroke-width:0.999997">1</text>
  <text
     x="512.58496"
     y="88.906166"
     fill="#000000"
     id="text391"
     style="font-size:18px;stroke-width:0.999997">2</text>
  <text
     x="577.58496"
     y="88.359375"
     fill="#000000"
     id="text391-7"
     style="font-size:18px;stroke-width:0.999997">3</text>
  <text
     x="642.53223"
     y="88.359375"
     fill="#000000"
     id="text391-7-0"
     style="font-size:18px;stroke-width:0.999997">4</text>
  <text
     x="708.32324"
     y="88.086914"
     fill="#000000"
     id="text391-7-0-8"
     style="font-size:18px;stroke-width:0.999997">5</text>
  <text
     x="772.35645"
     y="88.086914"
     fill="#000000"
     id="text391-7-0-8-5"
     style="font-size:18px;stroke-width:0.999997">6</text>
  <text
     x="836.7959"
     y="88.333008"
     fill="#000000"
     id="text391-7-0-8-5-9"
     style="font-size:18px;stroke-width:0.999997">7</text>
  <text
     x="902.64648"
     y="88.086914"
     fill="#000000"
     id="text391-7-0-8-5-9-3"
     style="font-size:18px;stroke-width:0.999997">8</text>
  <text
     x="966.92773"
     y="88.385742"
     fill="#000000"
     id="text391-7-0-8-5-9-3-1"
     style="font-size:18px;stroke-width:0.999997">9</text>
  <text
     x="1026.5566"
     y="88.350586"
     fill="#000000"
     id="text391-7-0-8-5-9-3-1-4"
     style="font-size:18px;stroke-width:0.999997">10</text>
  <text
     x="1082.1914"
     y="68.086914"
     fill="#000000"
     id="text391-7-0-8-5-9-3-1-4-1-9"
     style="font-size:18px;stroke-width:0.999997">Winst</text>
  <text
     x="1078.2422"
     y="108.67578"
     fill="#000000"
     id="text391-7-0-8-5-9-3-1-4-1"
     style="font-size:18px;stroke-width:0.999997">Punten</text>
  <text
     x="1163.9536"
     y="88.086914"
     fill="#000000"
     id="text391-7-0-8-5-9-3-1-4-1-7"
     style="font-size:18px;stroke-width:0.999997">Res.</text>
  <path
     style="fill:#a0a0a0;stroke:none"
     d="m 421.5,480.5 v -39 h 31.5 31.5 v 39 39 H 453 421.5 Z"
     id="path1679" />
  <path
     style="fill:#a0a0a0;stroke:none"
     d="m 421.5,400.5 v -39 h 31.5 31.5 v 39 39 H 453 421.5 Z"
     id="path1718" />
  <path
     style="fill:#a0a0a0;stroke:none"
     d="m 421.5,320.5 v -39 h 31.5 31.5 v 39 39 H 453 421.5 Z"
     id="path1757" />
  <path
     style="fill:#a0a0a0;stroke:none"
     d="m 486.5,160.5 v -39 h 31.5 31.5 v 39 39 H 518 486.5 Z"
     id="path2073" />
  <path
     style="fill:#a0a0a0;stroke:none"
     d="m 486.5,240.5 v -39 h 31.5 31.5 v 39 39 H 518 486.5 Z"
     id="path2112" />
  <path
     style="fill:#a0a0a0;stroke:none"
     d="m 486.5,480.5 v -39 h 31.5 31.5 v 39 39 H 518 486.5 Z"
     id="path2588" />
  <path
     style="fill:#a0a0a0;stroke:none"
     d="m 551.5,400.5 v -39 h 31.5 31.5 v 39 39 H 583 551.5 Z"
     id="path2627" />
  <path
     style="fill:#a0a0a0;stroke:none"
     d="m 551.5,320.5 v -39 h 31.5 31.5 v 39 39 H 583 551.5 Z"
     id="path2666" />
  <path
     style="fill:#a0a0a0;stroke:none"
     d="m 551.5,240.5 v -39 h 31.5 31.5 v 39 39 H 583 551.5 Z"
     id="path2705" />
  <path
     style="fill:#a0a0a0;stroke:none"
     d="m 616.5,160.5 v -39 h 31.5 31.5 v 39 39 H 648 616.5 Z"
     id="path3341" />
  <path
     style="fill:#a0a0a0;stroke:none"
     d="m 681.5,160.5 v -39 h 31.5 31.5 v 39 39 H 713 681.5 Z"
     id="path3380" />
  <path
     style="fill:#a0a0a0;stroke:none"
     d="m 616.5,400.5 v -39 h 31.5 31.5 v 39 39 H 648 616.5 Z"
     id="path3856" />
  <path
     style="fill:#a0a0a0;stroke:none"
     d="m 616.5,480.5 v -39 h 31.5 31.5 v 39 39 H 648 616.5 Z"
     id="path3895" />
  <path
     style="fill:#a0a0a0;stroke:none"
     d="m 681.5,240.5 v -39 h 31.5 31.5 v 39 39 H 713 681.5 Z"
     id="path3934" />
  <path
     style="fill:#a0a0a0;stroke:none"
     d="m 681.5,320.5 v -39 h 31.5 31.5 v 39 39 H 713 681.5 Z"
     id="path3973" />
  <path
     style="fill:#a0a0a0;stroke:none"
     d="m 746.5,240.5 v -39 h 31.5 31.5 v 39 39 H 778 746.5 Z"
     id="path4369" />
  <path
     style="fill:#a0a0a0;stroke:none"
     d="m 746.5,400.5 v -39 h 31.5 31.5 v 39 39 H 778 746.5 Z"
     id="path4408" />
  <path
     style="fill:#a0a0a0;stroke:none"
     d="m 746.5,480.5 v -39 h 31.5 31.5 v 39 39 H 778 746.5 Z"
     id="path4447" />
  <path
     style="fill:#a0a0a0;stroke:none"
     d="m 811.5,160.5 v -39 h 31.5 31.5 v 39 39 H 843 811.5 Z"
     id="path4843" />
  <path
     style="fill:#a0a0a0;stroke:none"
     d="m 811.5,320.5 v -39 h 31.5 31.5 v 39 39 H 843 811.5 Z"
     id="path4882" />
  <path
     style="fill:#a0a0a0;stroke:none"
     d="m 811.5,480.5 v -39 h 31.5 31.5 v 39 39 H 843 811.5 Z"
     id="path4921" />
  <path
     style="fill:#a0a0a0;stroke:none"
     d="m 876.5,160.5 v -39 h 31.5 31.5 v 39 39 H 908 876.5 Z"
     id="path5557" />
  <path
     style="fill:#a0a0a0;stroke:none"
     d="m 876.5,240.5 v -39 h 31.5 31.5 v 39 39 H 908 876.5 Z"
     id="path5596" />
  <path
     style="fill:#a0a0a0;stroke:none"
     d="m 941.5,240.5 v -39 h 31.5 31.5 v 39 39 H 973 941.5 Z"
     id="path5635" />
  <path
     style="fill:#a0a0a0;stroke:none"
     d="m 941.5,320.5 v -39 h 31.5 31.5 v 39 39 H 973 941.5 Z"
     id="path5674" />
  <path
     style="fill:#a0a0a0;stroke:none"
     d="m 1006.5,320.5 v -39 h 31.5 31.5 v 39 39 h -31.5 -31.5 z"
     id="path5713" />
  <path
     style="fill:#a0a0a0;stroke:none"
     d="m 1006.5,400.5 v -39 h 31.5 31.5 v 39 39 h -31.5 -31.5 z"
     id="path5752" />
  <path
     style="fill:#a0a0a0;stroke:none"
     d="m 876.5,400.5 v -39 h 31.5 31.5 v 39 39 H 908 876.5 Z"
     id="path6148" />
  <path
     style="fill:#a0a0a0;stroke:none"
     d="m 941.5,480.5 v -39 h 31.5 31.5 v 39 39 H 973 941.5 Z"
     id="path6187" />
  <path
     style="fill:#a0a0a0;stroke:none"
     d="m 1006.5,160.5 v -39 h 31.5 31.5 v 39 39 h -31.5 -31.5 z"
     id="path6226" />
</svg>
